# xmcd CD database file
#
# Track frame offsets:
#	187
#	8562
#	21317
#	39190
#	66787
#	80950
#	97170
#	108630
#	117940
#	133700
#	148135
#	165817
#
# Disc length: 2369 seconds
#
# Revision: 0
# Processed by: cddbd v1.5.1PL0 Copyright (c) Steve Scherf et al.
# Submitted via: CDex 1.51
#
DISCID=9f093f0c
DTITLE=Richard Clayderman - Gentle Hearted lullaby
DYEAR=1995
DGENRE=Easy Listening
TTITLE0=綿の国星のテーマ
TTITLE1=木漏れ日の詩
TTITLE2=銀河船
TTITLE3=リストの愛の夢
TTITLE4=思い出は遠く
TTITLE5=小さなピアノの詩
TTITLE6=鳥を夢見て
TTITLE7=愛の旋律
TTITLE8=バレリーナ
TTITLE9=ピアノの子守唄
TTITLE10=最後の春
TTITLE11=渚のアデリーヌ
EXTD=YEAR: 1995
EXTT0=
EXTT1=
EXTT2=
EXTT3=
EXTT4=
EXTT5=
EXTT6=
EXTT7=
EXTT8=
EXTT9=
EXTT10=
EXTT11=
PLAYORDER=
